<?xml version="1.0" standalone="no"?>
<!DOCTYPE svg PUBLIC "-//W3C//DTD SVG 20010904//EN"
 "http://www.w3.org/TR/2001/REC-SVG-20010904/DTD/svg10.dtd">
<svg version="1.0" xmlns="http://www.w3.org/2000/svg"
 width="700.000000pt" height="700.000000pt" viewBox="0 0 700.000000 700.000000"
 preserveAspectRatio="xMidYMid meet">
<metadata>
Created by potrace 1.14, written by Peter Selinger 2001-2017
</metadata>
<g transform="translate(0.000000,700.000000) scale(0.100000,-0.100000)"
fill="#000000" stroke="none">
<path d="M2697 6944 c-1 -1 -220 -5 -487 -8 -267 -4 -521 -9 -565 -11 -153 -7
-330 -16 -380 -20 -129 -10 -200 -17 -205 -20 -3 -1 -31 -6 -64 -10 -68 -7
-141 -32 -246 -82 -341 -165 -537 -449 -644 -933 -30 -135 -33 -154 -51 -300
-4 -30 -9 -66 -11 -80 -2 -14 -6 -56 -9 -95 -3 -38 -8 -83 -10 -100 -27 -195
-27 -1402 0 -1870 7 -129 20 -280 30 -375 3 -25 8 -65 11 -90 2 -25 7 -56 9
-70 2 -14 9 -54 15 -90 16 -104 19 -120 45 -225 59 -242 145 -409 267 -519 71
-64 145 -102 284 -145 161 -49 256 -124 292 -230 20 -58 14 -133 -19 -237 -60
-191 -36 -321 75 -406 180 -135 542 -82 846 123 30 21 109 83 175 139 66 56
154 124 195 151 168 112 409 214 600 254 8 2 36 8 62 14 25 6 70 13 100 16 29
4 59 8 67 11 7 2 77 7 155 9 434 15 487 20 624 61 192 55 296 167 357 384 80
282 203 397 353 329 65 -30 134 -29 202 2 77 36 124 89 177 199 53 112 108
184 179 233 50 36 129 69 190 82 105 21 272 -5 394 -61 192 -89 315 -195 482
-417 51 -67 121 -150 156 -185 178 -172 322 -153 427 56 75 149 140 433 170
737 3 33 8 74 10 90 2 17 6 71 10 120 4 50 8 110 10 135 14 160 20 464 20
1010 0 761 -10 1008 -51 1258 -3 17 -7 47 -9 66 -8 59 -45 207 -72 285 -88
258 -246 437 -485 550 -133 63 -379 130 -568 156 -25 3 -56 8 -70 10 -14 2
-50 7 -80 10 -30 3 -66 8 -80 10 -14 2 -63 7 -110 10 -47 4 -101 8 -120 10
-19 2 -91 6 -160 10 -69 3 -150 8 -180 10 -56 4 -351 14 -625 20 -82 2 -476 6
-875 10 -399 4 -744 8 -768 9 -24 1 -44 1 -45 0z m2752 -838 c123 -31 217
-109 276 -228 66 -135 66 -261 -1 -468 -64 -198 -159 -352 -278 -452 -85 -71
-147 -91 -179 -59 -19 19 -19 97 -1 157 10 32 18 61 19 64 6 32 80 142 123
183 158 152 168 163 180 203 31 107 -10 215 -103 270 -88 51 -198 23 -341 -89
-133 -104 -239 -150 -293 -127 -17 7 -32 20 -33 29 -5 57 -4 84 9 146 41 197
198 344 406 379 87 15 133 13 216 -8z m-1604 -280 c17 -3 53 -7 80 -10 64 -6
105 -16 105 -26 0 -10 -65 -27 -135 -36 -33 -3 -69 -8 -80 -10 -121 -24 -1004
-24 -1044 0 -3 2 -35 6 -71 10 -76 7 -110 13 -141 25 -23 8 -23 8 -4 18 28 15
82 22 220 29 66 4 122 8 124 10 6 5 912 -4 946 -10z m-70 -1090 c66 -4 132 -9
148 -12 74 -11 93 -16 100 -23 10 -10 -39 -28 -98 -36 -22 -3 -51 -8 -65 -10
-14 -3 -65 -7 -115 -11 -49 -3 -110 -7 -135 -10 -57 -5 -578 -5 -645 0 -27 3
-86 7 -130 10 -111 9 -259 31 -281 44 -18 10 -17 11 6 20 31 12 106 20 258 28
64 4 118 7 119 8 6 5 735 -2 838 -8z m850 -880 c33 -3 89 -8 124 -11 259 -23
53 -59 -464 -82 -329 -14 -1137 -7 -1375 12 -30 3 -89 7 -130 10 -70 5 -135
13 -170 20 -8 2 -21 4 -27 4 -7 1 -13 5 -13 10 0 16 79 26 285 36 77 4 142 9
143 10 7 6 1564 -3 1627 -9z m-910 -870 c154 -8 221 -15 269 -27 43 -12 38
-26 -10 -35 -16 -3 -36 -7 -44 -9 -14 -4 -62 -10 -165 -20 -68 -7 -384 -18
-505 -18 -135 0 -488 12 -516 17 -10 2 -58 7 -106 11 -49 3 -98 8 -110 11 -13
2 -39 7 -58 10 -84 14 -94 28 -27 39 23 4 51 9 61 11 11 2 87 6 170 10 83 4
152 7 153 8 6 5 783 -2 888 -8z"/>
<path d="M5346 2799 c-55 -15 -90 -66 -167 -244 -56 -129 -105 -203 -176 -260
-89 -73 -145 -96 -262 -109 -86 -10 -146 -65 -205 -188 -36 -75 -80 -225 -92
-313 -3 -27 -8 -58 -10 -67 -16 -94 -23 -376 -12 -508 27 -317 157 -626 341
-811 106 -107 169 -153 290 -209 329 -152 735 -96 1100 153 157 107 268 230
344 382 32 64 78 198 87 255 3 19 9 53 12 75 13 80 10 224 -7 341 -49 338
-223 668 -499 945 -112 112 -197 190 -378 347 -195 169 -299 229 -366 211z
m-227 -1287 c101 -33 203 -121 242 -206 52 -114 -13 -145 -181 -85 -143 50
-275 123 -338 185 -16 17 -25 66 -14 82 26 39 203 54 291 24z"/>
</g>
</svg>
